/* XPM */
static char *_023b9f0d9e94d60d15d962e3aa93505[] = {
/* columns rows colors chars-per-pixel */
"60 90 64 1 ",
"  c #000000",
". c #0C0500",
"X c #040800",
"o c #0C0C00",
"O c #120600",
"+ c #1E0000",
"@ c #140900",
"# c #1B0C00",
"$ c #121200",
"% c #1B1B00",
"& c #2E0700",
"* c #210E00",
"= c #320000",
"- c #251000",
"; c #2C1400",
": c #321600",
"> c #3A1100",
", c #361800",
"< c #3B1B00",
"1 c #281C13",
"2 c #242500",
"3 c #272900",
"4 c #2A2A00",
"5 c #343400",
"6 c #3C3D00",
"7 c #2F261E",
"8 c #431E00",
"9 c #4E1F00",
"0 c #472000",
"q c #4C2200",
"w c #532500",
"e c #582700",
"r c #5B2900",
"t c #632C00",
"y c #4F3327",
"u c #693C27",
"i c #613F32",
"p c #464600",
"a c #4E4E00",
"s c #565500",
"d c #5D5D00",
"f c #646400",
"g c #6B6B00",
"h c #737300",
"j c #7E7E00",
"k c #7C523B",
"l c #524A47",
"z c #876245",
"x c #987151",
"c c #808000",
"v c #8C8C00",
"b c #939300",
"n c #9B9B00",
"m c #B29E8D",
"M c #BEAC9E",
"N c #C2B2AA",
"B c #D0C5BB",
"V c #D9CABF",
"C c #D9CEC4",
"Z c #E9E2DB",
"A c #F8F1EB",
"S c #FCF8F3",
"D c #FFFFFF",
"F c None",
/* pixels */
"FFFFFFFFFFFFFFFFFFFFFFFFFFFFFFFFFFFFFFFFFFFFFFFFFFFFFFFFFFFF",
"FFFFFFFFFFFFFFFFFFFFFFFFFFFFFFFFFFFFFFFFFFFFFFFFFFFFFFFFFFFF",
"FFFFFFFFFFFFFFFFFFFFFFFFFFFFFFFFFFFwwwFFFFFFFFFFFFFFFFFFFFFF",
"FFFFFFFFFFFFFFFFFFFFFFFFFFFFFFFFFwwwwwFFFFFFFFFFFFFFFFFFFFFF",
"FFFFFFFFFFFFFFFFFFFFFFFFFFFFFFFFwwwwFFFFFFFwwFFFFFFFFFFFFFFF",
"FFFFFFFFFFFFFFFFFFFFFFFFFFFFFFFFwwwFFFFFwwwwwwFFFFFFFFFFFFFF",
"FFFFFFFFFFFFFFFFFFFFFFFFFFFFFFFwwwFFFFFwwwwwwFFFFFFFFFFFFFFF",
"FFFFFFFFFFFFFFFFFFFFFFFFFFFFFFFwwwFFFFwwwFFFFFFFFFFFFFFFFFFF",
"FFFFFFFFFFFFFFFFFFFFFFFFFFFFFFFwwFFFFFwwFFFFFFFFFFFFFFFFFFFF",
"FFFFFFFFFFFFFFFFFFFFFFFFFFFFFFFwFFFFFFwFFFFFFFFFFFFFFFFFFFFF",
"FFFFFFFFFFFFFFFFFFFFFFFFFFFFFFFwFFFFFwFFFFFFFFFFFFFFFFFFFFFF",
"FFFFFFFFFFFFFFFFFFFFFFFFFFFFFFFwFFFFFwFFFFFFFFFFFFFFFFFFFFFF",
"FFFFFFFFFFFFFFFFFFFFFFFFFFFFFFFeFFFFFFFFFFFFFFFFFFFFFFFFFFFF",
"FFFFFFFFFFFFFFFFFFFFFFFFFFFFFFFFFFFFFFFFFFFFFFFFFFFFFFFFFFFF",
"FFFFFFFFFFFFFFFFFFFFFFFFFFFFFFFFFFFFwFFFFFFFFFFFFFFFFFFFFFFF",
"FFFFFFFFFFFFFFFFFFFFFFFFFFFFF     FFFFFFFFFFFFFFFFFFFFFFFFFF",
"FFFFFFFFFFFFFFFFFFFFFFFFFF    #q*   #9wFFFFFFFFFFFFFFFFFFFFF",
"FFFFFFFFFFFFFFFFFFFFFFFFF    XuDZ+ XkDZ=FFFFFFFFFFFFFFFFFFFF",
"FFFFFFFFFFFFFFFFFFFFFFFFF     DDDB >BDDMFFFFFFFFFFFFFFFFFFFF",
"FFFFFFFFFFFFFFFFFFFFFFFF      ADDC &DDDmFFFFFFFFFFFFFFFFFFFF",
"FFFFFFFFFFFFFFFFFFFFFFFF      DDCi +DDz FFFFFFFFFFFFFFFFFFFF",
"FFFFFFFFFFFFFFFFFFFFFFF       yDSO .kNx FFFFFFFFFFFFFFFFFFFF",
"FFFFFFFFFFFFFFFFFFFFFFFF       >l   1D   FFFFFFFFFFFFFFFFFFF",
"FFFFFFFFFFFFFFFFFFFFFFFF        O    7   FFFFFFFFFFFFFFFFFFF",
"FFFFFFFFFFFFFFFFFFFFFFFF                 FFFFFFFFFFFFFFFFFFF",
"FFFFFFFFFFFFFFFFFFFFFFFFF               FFFFFFFFFFFFFFFFFFFF",
"FFFFFFFFFFFFFFFFFFFFFFFFFF              FFFFFFFFFFFFFFFFFFFF",
"FFFFFFFFFFFFFFFFFFFFFFFFFFF            FFFFFFFFFFFFFFFFFFFFF",
"FFFFFFFFFFFFFFFFFFFFFFFFFF           FFFFFFFFFFFFFFFFFFFFFFF",
"FFFFFFFFFFFFFFFFFFFFFFFF ;0ee8 FFFFFFFFFFFFFFFFFFFFFFFFFFFFF",
"FFFFFFFFFFFFFFFFFFFFFFF@Oewwwe@FFFFFFFFFFFFFFFFFFFFFFFFFFFFF",
"FFFFFFFFFFFFFFFFFFFFF <;8wwwww0FFFFFFFFFFFFFFFFFFFFFFFFFFFFF",
"FFFFFFFFFFFFFFFFFFFFX0e;ewwqwwwOFFFFFFFFFFFFFFFFFFFFFFFFFFFF",
"FFFFFFFFFFFFFFFFFFF@re wwwwwwwq FFFFFFFFFFFFFFFFFFFFFFFFFFFF",
"FFFFFFFFFFFFFFFFF #ww<rwwwwwwww FFFFFFFFFFFFFFFFF g2 FFFFFFF",
"FFFFFFFFFFFFFFFF  eer#wwwwwwwwq, FFFFFFFFFFFF  pfjccj5FFFFFF",
"FFFFFFFFFFFFFFFF#ewe;:qwwqwwww8<-FFFFFFFFFF  6bcccccjc$FFFFF",
"FFFFFFFFFFFFFFFFwwe  rewwwwwww8e#FFFFFFFF osccjcccccccf FFFF",
"FFFFFFFFFFFFFFFFwe-F r,.,ewwew8wt FFFF  6fvcccjcjcccjjj FFFF",
"FFFFFFFFFFFFFFFFee F tw,##:,8r ee<FF %4nccjjcccccccjcj4FFFFF",
"FFFFFFFFFFFFFFFF e F  ewweeeee.e0- 2vcccccccccjcccccc% FFFFF",
"FFFFFFFFFFFFFFFF @<FFw<@eeeww:FX 6jjjccccccjccccccc5FFFFFFFF",
"FFFFFFFFFFFFFFF.# -  0e#   w,  4vcjjjcccccccccjchf FFFFFFFFF",
"FFFFFFFFFFFFF 8weeO   eeeet  fccccjccccjcjcccjboFF   FFFFFFF",
"FFFFFFFFFFFF*0wwwwq   @*-.2hvcccccccccccccccn4FF  *  FFFFFFF",
"FFFFFFFFFFF.twwwwww8   $5bvjjccccccjcjcjcjdpO F      FFFFFFF",
"FFFFFFFFFFOewwwwwweq X2vjcccccccccccccchg    #   FFFFFFFFFFF",
"FFFFFFFFF wwwwwweq@oaccjcccjccccccccv4$ FFFF  FFFFFFFFFFFFFF",
"FFFFFFFFF:wwwwwq  pvccccccccjcccccha  FFFFFFFFFFFFFFFFFFFFFF",
"FFFFFFFF.ewwww8 gcccccccjcjcccccpo FFFFFFFFFFFFFFFFFFFFFFFFF",
"FFFFFFF qwqwr@5hcccccccjcjccba% FFFFFFFFFFFFFFFFFFFFFFFFFFFF",
"FFFFFFF ewwe#scjccccjccccvhs  FFFFFFFFFFFFFFFFFFFFFFFFFFFFFF",
"FFFFFF rwwer vjcccccccccf$  FFFFFFFFFFFFFFFFFFFFFFFFFFFFFFFF",
"FFFFFFOwwww#4cccjjjvcd3X. O FFFFFFFFFFFFFFFFFFFFFFFFFFFFFFFF",
"FFFFF :wwww.sjjchjf  *wq8 ; FFFFFFFFFFFFFFFFFFFFFFFFFFFFFFFF",
"FFFFF ;wwqe# bbX  #qwwwww   FFFFFFFFFFFFFFFFFFFFFFFFFFFFFFFF",
"FFFFF wwwww0,O;,8wewwwwwe.FFFFFFFFFFFFFFFFFFFFFFFFFFFFFFFFFF",
"FFFFF rwwwwwwewwwwqwwwww<FFFFFFFFFFFFFFFFFFFFFFFFFFFFFFFFFFF",
"FFFFF,wwwwwwwwwwwwwwwww< FFFFFFFFFFFFFFFFFFFFFFFFFFFFFFFFFFF",
"FFFFF:wwwwwwwwwwwwwwwe@#FFFFFFFFFFFFFFFFFFFFFFFFFFFFFFFFFFFF",
"FFFFF:ewqwwwwwwwwwwww-8eXFFFFFFFFFFFFFFFFFFFFFFFFFFFFFFFFFFF",
"FFFFF:wwwwwwwwwqwww- F e<FFFFFFFFFFFFFFFFFFFFFFFFFFFFFFFFFFF",
"FFFFF:wwwwwwwwewww8FFFFqe8FFFFFFFFFFFFFFFFFFFFFFFFFFFFFFFFFF",
"FFFFF,wwwwweeq:#ew8FFFF8ww<FFFFFFFFFFFFFFFFFFFFFFFFFFFFFFFFF",
"FFFFF,wwe0:O   F:ew<FFF wwe@FFFFFFFFFFFFFFFFFFFFFFFFFFFFFFFF",
"FFFF ee@FFFFFFFFF8we#FFF-ww8FFFFFFFFFFFFFFFFFFFFFFFFFFFFFFFF",
"FFF qe<FFFFFFFFFF:ewr@FF,ewe@FFFFFFFFFFFFFFFFFFFFFFFFFFFFFFF",
"FFF#weFFFFFFFFFFFF,ww8FFF<ww8FFFFFFFFFFFFFFFFFFFFFFFFFFFFFFF",
"FF.ew@FFFFFFFFFFFFOeww FF.ee FFFFFFFFFFFFFFFFFFFFFFFFFFFFFFF",
"FXwqeFFFFFFFFFFFFFFqe0 FF e8FFFFFFFFFFFFFFFFFFFFFFFFFFFFFFFF",
"F@ee FFFFFFFFFFFFFF:e@FFF t FFFFFFFFFFFFFFFFFFFFFFFFFFFFFFFF",
"FOeeOFFFFFFFFFFFFF q0 FF <; FFFFFFFFFFFFFFFFFFFFFFFFFFFFFFFF",
"FF0q FFFFFFFFFFFFF eOFFF 8 FFFFFFFFFFFFFFFFFFFFFFFFFFFFFFFFF",
"FF<e.FFFFFFFFFFFFF - FFF  FFFFFFFFFFFFFFFFFFFFFFFFFFFFFFFFFF",
"FF ,.FFFFFFFFFFFF   FFF  FFFFFFFFFFFFFFFFFFFFFFFFFFFFFFFFFFF",
"FFF..FFFFFFFFFFFF  FFFF  FFFFFFFFFFFFFFFFFFFFFFFFFFFFFFFFFFF",
"FFF   FFFFFFFFFFF  FFF O FFFFFFFFFFFFFFFFFFFFFFFFFFFFFFFFFFF",
"FFFF  FFFFFFFFFF  FFF  @FFFFFFFFFFFFFFFFFFFFFFFFFFFFFFFFFFFF",
"FFFF   FFFFFFFFF* FFF r FFFFFFFFFFFFFFFFFFFFFFFFFFFFFFFFFFFF",
"FFFFF  FFFFFFFF w.FF tqFFFFFFFFFFFFFFFFFFFFFFFFFFFFFFFFFFFFF",
"FFFFF @ FFFFFF 0eFFF :#FFFFFFFFFFFFFFFFFFFFFFFFFFFFFFFFFFFFF",
"FFFFF :;FFFFFF rOFFF   FFFFFFFFFFFFFFFFFFFFFFFFFFFFFFFFFFFFF",
"FFFFF @e  FFFF    FF   :  FFFFFFFFFFFFFFFFFFFFFFFFFFFFFFFFFF",
"FFFFFF#r# FFFF    : FFFOeOFFFFFFFFFFFFFFFFFFFFFFFFFFFFFFFFFF",
"FFFFFF    FFFFFFF 8#FFF   FFFFFFFFFFFFFFFFFFFFFFFFFFFFFFFFFF",
"FFFFXO    FFFFFFF   FFFF FFFFFFFFFFFFFFFFFFFFFFFFFFFFFFFFFFF",
"FFF e, FFFFFFFFFFFFFFFFFFFFFFFFFFFFFFFFFFFFFFFFFFFFFFFFFFFFF",
"FFF <OFFFFFFFFFFFFFFFFFFFFFFFFFFFFFFFFFFFFFFFFFFFFFFFFFFFFFF",
"FFFF FFFFFFFFFFFFFFFFFFFFFFFFFFFFFFFFFFFFFFFFFFFFFFFFFFFFFFF",
"FFFFFFFFFFFFFFFFFFFFFFFFFFFFFFFFFFFFFFFFFFFFFFFFFFFFFFFFFFFF"
};
