/* XPM */
static char *_274d630e42f4f21b841e0a239580d37[] = {
/* columns rows colors chars-per-pixel */
"60 94 251 2 ",
"   c black",
".  c #010000",
"X  c #000001",
"o  c #020000",
"O  c #030000",
"+  c #020100",
"@  c #030100",
"#  c #020200",
"$  c #030200",
"%  c #030300",
"&  c #020202",
"*  c #040000",
"=  c #040100",
"-  c #070000",
";  c #040200",
":  c #050200",
">  c #060200",
",  c #060300",
"<  c #070300",
"1  c #080300",
"2  c #090300",
"3  c #0E0200",
"4  c #0F0300",
"5  c #080400",
"6  c #090400",
"7  c #0A0400",
"8  c #0B0400",
"9  c #0A0500",
"0  c #0B0500",
"q  c #0C0500",
"w  c #0D0600",
"e  c #0E0600",
"r  c #0E0700",
"t  c #0F0700",
"y  c #080800",
"u  c #0C0C00",
"i  c #0F0F00",
"p  c #0C0A08",
"a  c #120000",
"s  c #110200",
"d  c #100700",
"f  c #110700",
"g  c #130700",
"h  c #110800",
"j  c #120800",
"k  c #130800",
"l  c #130900",
"z  c #140800",
"x  c #140900",
"c  c #150900",
"v  c #150A00",
"b  c #160A00",
"n  c #170A00",
"m  c #170B00",
"M  c #180A00",
"N  c #190A00",
"B  c #180B00",
"V  c #190B00",
"C  c #1A0B00",
"Z  c #1C0B00",
"A  c #1A0C00",
"S  c #1B0C00",
"D  c #1C0D00",
"F  c #1D0D00",
"G  c #1E0D00",
"H  c #1E0E00",
"J  c #1F0E00",
"K  c #101000",
"L  c #131300",
"P  c #141400",
"I  c #161600",
"U  c #1B1B00",
"Y  c #1D1D00",
"T  c #1F1F00",
"R  c #1F140B",
"E  c #151412",
"W  c #1D1A17",
"Q  c #200E00",
"!  c #210E00",
"~  c #200F00",
"^  c #210F00",
"/  c #220F00",
"(  c #230F00",
")  c #240F00",
"_  c #360B00",
"`  c #221000",
"'  c #231000",
"]  c #241000",
"[  c #251000",
"{  c #251100",
"}  c #261100",
"|  c #271100",
" . c #281200",
".. c #291200",
"X. c #291300",
"o. c #2A1200",
"O. c #2A1300",
"+. c #2B1300",
"@. c #2C1400",
"#. c #2D1400",
"$. c #2D1500",
"%. c #2E1500",
"&. c #2F1500",
"*. c #301500",
"=. c #301600",
"-. c #311600",
";. c #321600",
":. c #321700",
">. c #331700",
",. c #341700",
"<. c #351700",
"1. c #351800",
"2. c #361800",
"3. c #371800",
"4. c #361900",
"5. c #371900",
"6. c #381900",
"7. c #391900",
"8. c #391A00",
"9. c #3A1A00",
"0. c #3B1A00",
"q. c #3C1B00",
"w. c #3D1B00",
"e. c #3F1C00",
"r. c #3F1D03",
"t. c #202000",
"y. c #232300",
"u. c #252500",
"i. c #262600",
"p. c #272700",
"a. c #282800",
"s. c #292900",
"d. c #2A2A00",
"f. c #2B2B00",
"g. c #303000",
"h. c #323200",
"j. c #393900",
"k. c #3D3D00",
"l. c #3F3F00",
"z. c #401C00",
"x. c #411D00",
"c. c #421E00",
"v. c #431E00",
"b. c #441E00",
"n. c #441F00",
"m. c #451F00",
"M. c #461F00",
"N. c #462000",
"B. c #472000",
"V. c #482000",
"C. c #492000",
"Z. c #492100",
"A. c #4A2100",
"S. c #4B2100",
"D. c #4B2200",
"F. c #4C2200",
"G. c #4D2200",
"H. c #4E2300",
"J. c #4F2300",
"K. c #502400",
"L. c #512400",
"P. c #522400",
"I. c #522500",
"U. c #532500",
"Y. c #542500",
"T. c #542600",
"R. c #552600",
"E. c #562600",
"W. c #562700",
"Q. c #572700",
"!. c #542702",
"~. c #582700",
"^. c #592800",
"/. c #5A2800",
"(. c #5B2800",
"). c #5B2900",
"_. c #5D3413",
"`. c #683E1C",
"'. c #404000",
"]. c #424200",
"[. c #484800",
"{. c #4B4B00",
"}. c #4C4C00",
"|. c #4F4F00",
" X c #4F5000",
".X c #515100",
"XX c #535300",
"oX c #545400",
"OX c #575700",
"+X c #585800",
"@X c #5B5B00",
"#X c #5C5C00",
"$X c #646400",
"%X c #666600",
"&X c #686800",
"*X c #696900",
"=X c #6C6C00",
"-X c #6F6F00",
";X c #717100",
":X c #727200",
">X c #777700",
",X c #797900",
"<X c #7B7B00",
"1X c #7C7C00",
"2X c #7D7D00",
"3X c #7E7E00",
"4X c #7F7F00",
"5X c #626212",
"6X c #6D4321",
"7X c #634F3F",
"8X c #6C5440",
"9X c #65564A",
"0X c #7F5C40",
"qX c #61624E",
"wX c #777747",
"eX c #846247",
"rX c #8A6B52",
"tX c #8D6E55",
"yX c #886F5B",
"uX c #937156",
"iX c #808000",
"pX c #818100",
"aX c #828200",
"sX c #838300",
"dX c #848400",
"fX c #858500",
"gX c #868600",
"hX c #878700",
"jX c #888800",
"kX c #8A8A00",
"lX c #9A8676",
"zX c #9C8574",
"xX c #A48B77",
"cX c #A19081",
"vX c #AD9887",
"bX c #B09A89",
"nX c #B49D8A",
"mX c #B5A597",
"MX c #B8A99E",
"NX c #CABCB0",
"BX c #D2BFB0",
"VX c #CDC1B6",
"CX c #D9D6D3",
"ZX c #E5DCD3",
"AX c #E3DBD5",
"SX c #E7E1DB",
"DX c #E7E1DC",
"FX c #EBE4DF",
"GX c #F5F2EF",
"HX c gray100",
"JX c None",
/* pixels */
"JXJXJXJXJXJXJXJXJXJXJXJXJXJXJXJXJXJXJXJXJXJXJXJXJXJXJXJXJXJXJXJXJXJXJXJXJXJXJXJXJXJXJXJXJXJXJXJXJXJXJXJXJXJXJXJXJXJXJXJX",
"JXJXJXJXJXJXJXJXJXJXJXJXJXJXJXJXJXJXJXJXJXJXJXJXJXJXJXJXJXJXJXJXJXJXJXJXJXJXJXJXJXJXJXJXJXJXJXJXJXJXJXJXJXJXJXJXJXJXJXJX",
"JXJXJXJXJXJXJXJXJXJXJXJXJXJXJXJXJXJXJXJXJXJXJXJXJXJXJXJXJXJXJXJXJXJXU.U.U.U.U.JXJXJXJXJXJXJXJXJXJXJXJXJXJXJXJXJXJXJXJXJX",
"JXJXJXJXJXJXJXJXJXJXJXJXJXJXJXJXJXJXJXJXJXJXJXJXJXJXJXJXJXJXJXJXJXU.U.U.U.U.U.JXJXJXJXJXJXJXJXJXJXJXJXJXJXJXJXJXJXJXJXJX",
"JXJXJXJXJXJXJXJXJXJXJXJXJXJXJXJXJXJXJXJXJXJXJXJXJXJXJXJXJXJXJXU.U.U.U.U.U.JXJXJXJXJXJXJXJXJXJXJXJXJXJXJXJXJXJXJXJXJXJXJX",
"JXJXJXJXJXJXJXJXJXJXJXJXJXJXJXJXJXJXJXJXJXJXJXJXJXJXJXJXJXJXJXU.U.U.U.JXJXJXJXJXJXJXJXJXJXJXJXJXJXJXJXJXJXJXJXJXJXJXJXJX",
"JXJXJXJXJXJXJXJXJXJXJXJXJXJXJXJXJXJXJXJXJXJXJXJXJXJXJXJXJXJXU.U.U.JXJXJXJXJXJXJXJXJXJXJXJXJXJXJXJXJXJXJXJXJXJXJXJXJXJXJX",
"JXJXJXJXJXJXJXJXJXJXJXJXJXJXJXJXJXJXJXJXJXJXJXJXJXJXJXJXJXU.U.U.JXJXJXJXJXJXJXJXJXJXJXJXJXJXJXJXJXJXJXJXJXJXJXJXJXJXJXJX",
"JXJXJXJXJXJXJXJXJXJXJXJXJXJXJXJXJXJXJXJXJXJXJXJXJXJXJXJXJXU.U.JXJXJXJXJXJXJXJXU.U.U.U.JXJXJXJXJXJXJXJXJXJXJXJXJXJXJXJXJX",
"JXJXJXJXJXJXJXJXJXJXJXJXJXJXJXJXJXJXJXJXJXJXJXJXJXJXJXJXU.U.JXJXJXJXJXJXJXJXU.U.U.U.U.U.JXJXJXJXJXJXJXJXJXJXJXJXJXJXJXJX",
"JXJXJXJXJXJXJXJXJXJXJXJXJXJXJXJXJXJXJXJXJXJXJXJXJXJXJXJXU.U.JXJXJXJXJXJXJXU.U.U.U.U.U.U.JXJXJXJXJXJXJXJXJXJXJXJXJXJXJXJX",
"JXJXJXJXJXJXJXJXJXJXJXJXJXJXJXJXJXJXJXJXJXJXJXJXJXJXJXJXU.JXJXJXJXJXJXJXU.U.JXJXJXJXJXJXJXJXJXJXJXJXJXJXJXJXJXJXJXJXJXJX",
"JXJXJX  {.f.y y JXJXJXJXJXJXJXJXJXJXJXJXJXJXJXJXJXJXJXU.U.JXJXJXJXJXJXU.U.JXJXJXJXJXJXJXJXJXJXJXJXJXJXJXJXJXJXJXJXJXJXJX",
"JXJXK :XsXsX4X*X.Xf.  JXJXJXJXJXJXJXJXJXJXJXJXJXJXJXJXU.U.JXJXJXJXJXU.U.JXJXJXJXJXJXJXJXJXJXJXJXJXJXJXJXJXJXJXJXJXJXJXJX",
"JXJXp.sX4XsX4X4XsXsX>Xp.i JXJXJXJXJXJXJXJXJXJXJXJXJXJXU.JXJXJXJXJXJXU.JXJXJXJXJXJXJXJXJXJXJXJXJXJXJXJXJXJXJXJXJXJXJXJXJX",
"JXJX}.sX4X4XsX4XsX4XsXsX>XOXU JXJXJXJXJXJXJXJXJXJXJXJXU.JXJXJXJXJXU.JXJXJXJXJXJXJXJXJXJXJXJXJXJXJXJXJXJXJXJXJXJXJXJXJXJX",
"JXJX.XsX4XsX4X4X4X4XsX4XsX4XjX%XY i JXJXJXJXJXJXJXJXJXJXJXJXJXJXJXJXJXJXJXJXJXJXJXJXJXJXJXJXJXJXJXJXJXJXJXJXJXJXJXJXJXJX",
"JXJX4X4X4X4XsX4X4XsX4X4XsX4X4X4XsX:X-XY                   JXJXJXJXJXJXJXJXJXJXJXJXJXJXJXJXJXJXJXJXJXJXJXJXJXJXJXJXJXJXJX",
"JXJX,X4X4X4X4X4X4X4X4X4X4XsX4XsX4XsX4Xf.                      JXJXJXJXJXJXJXJXJXJXJXJXJXJXJXJXJXJXJXJXJXJXJXJXJXJXJXJXJX",
"JXJXp.sXsX4XsX4X4XsX4XsX4X4X4X4X4XdXP                           JXJXJXJXJXJXJXJXJXJXJXJXJXJXJXJXJXJXJXJXJXJXJXJXJXJXJXJX",
"JXJXJXp.%XdXsX4X4X4XsX4X4X4X4X4XsX*X            e _.uXr.    C `.eXJXJXJXJXJXJXJXJXJXJXJXJXJXJXJXJXJXJXJXJXJXJXJXJXJXJXJX",
"JXJXJXJXJXy.>XsX4XsX4X4X4XsX4XsXdXf.            !.NXHXZXs y 6XGXHXnX  JXJXJXJXJXJXJXJXJXJXJXJXJXJXJXJXJXJXJXJXJXJXJXJXJX",
"JXJXJXJXJXJXJXf.+X,XdX4XsX4X4X4XdXP           g 0XHXHXHXcX_ DXHXHXHX5XdX%X+X+XOXj.g.h.h.g.g.g.g.g.+X#X&X].JXJXJXJXJXJXJX",
"JXJXJXJXJXJXJXJXJX  p.$XsXsX4XsXjX            3 bXHXHXHXAXrXHXHXHXHXwXsX4XsXsX4XsX4XsXsX4X4XsXsXsX4XsXdX].JX  JXJXJXJXJX",
"JXJXJXJXJXJXJXJXJXJXJXJXY f.[.%XjXy.          3 bXHXHX9XBXtXHXHXlXFXqX4X4X4XsX4X4X4XsX4XsX4X4X4XsX4XsXdX].JX  6 JXJXJXJX",
"JXJXJXJXJXJXJXJXJXJXJXJXJXJXJX                s bXvXzX-   yXSXxXs / - ,X4X4X4X4X4XsX4X4X4X4X4XsX4X4X4XsXl.  C / JXJXJXJX",
"JXJXJXJXJXJXJXJXJXJXJXJXJXJXJXJXJXJX            8XMX      8XCX        4X4X4XsX4X4X4X4XsXsX4XsX4X4X4XsXjXy   H.  JXJXJXJX",
"JXJXJXJXJXJXJXJXJXJXJXJXJXJXJXJXJXJX              mX3       VXE       ,X4XsX4X4X4XsX4XsX4X4X4X4X4XsX4X.X  t   JXJXJXJXJX",
"JXJXJXJXJXJXJXJXJXJXJXJXJXJXJXJXJXJXJX            p W         -       p.l.OXOXOXOXdXdXdXdXdXdXOX.X{.P t 0.y JXJXJXJXJXJX",
"JXJXJXJXJXJXJXJXJXJXJXJXJXJXJXJXJXJXJXJX                              JXJXJXJXJXJXJXJXJXJXJXJXJXJX-   y g JXJXJXJXJXJXJX",
"JXJXJXJXJXJXJXJXJXJXJXJXJXJXJXJXJXJXJXJXJX                          JXJXJXJXJXJXJXJXJXJXJXJXJXJX  5.H.- JXJXJXJXJXJXJXJX",
"JXJXJXJXJXJXJXJXJXJXJXJXJXJXJXJXJXJXJXJXJXJX                      JXJXJXJXJXJXJXJXJXJXJXJXJXJXJXC ^.>.  JXJXJXJXJXJXJXJX",
"JXJXJXJXJXJXJXJXJXJXJXJXJXJXJXJXJXJXJXJXJXJXC C.b.+.J / J   JXJXJXJXJXJXJXJXJXJXJXJXJXJXJXJXJX6 U.v JXJXJXJXJXJXJXJXJXJX",
"JXJXJXJXJXJXJXJXJXJXJXJXJXJXJXJXJXJXJXJXJX3 b.Y.Y.Y.!.!.!.c.6 JXJXJXJXJXJXJXJXJXJXJXJXJXJXJX  l l JXJXJXJXJXJXJXJXJXJXJX",
"JXJXJXJXJXJXJXJXJXJXJXJXJXJXJXJXJXJXJX| Z.0.P.!.P.!.U.U.U././ H.Z.  JXJXJXJXJXJXJXJXJXJXJXJX    JXJXJXJXJXJXJXJXJXJXJXJX",
"JXJXJXJXJXJXJXJXJXJXJXJXJXJXJXJXJX..!.!.#.H.Y.P.Y.P.U.U.P.!.>.<.!./.0.JXJXJXJXJXJXJXJXJXJXv - JXJXJXJXJXJXJXJXJXJXJXJXJX",
"JXJXJXJXJXJXJXJXJXJXJXJXJXJXJX) H.!.P.!...!.Y.!.P.Y.P.!.Y.P.b.JXA U.U.J.| JXJXJXJXJXJXJX..| JXJXJXJXJXJXJXJXJXJXJXJXJXJX",
"JXJXJXJXJXJXJXJXJXJXJXJXJXJXr.!.!.U./.*.b.!.Y.P.!.P.Y.P.P.!.H.e JX` U.U.!.Z.#...JXJX  >.0.  JXJXJXJXJXJXJXJXJXJXJXJXJXJX",
"JXJXJXJXJXJXJXJXJXJXJXJX<.!.P.!.U.!.) JXP.U.P.!.P.!.P.!.Y.P.Y.v JXJXv U.!.P.!.U.0.v b.H.  JXJXJXJXJXJXJXJXJXJXJXJXJXJXJX",
"JXJXJXJXJXJXJXJXJXJXJXJXZ.P.Y.!.0./ JXJXP.P.Y.P.Y.P.Y.P.Y.Y.Y.z JXJXJXJXC.!.U.U.!.!./.` JXJXJXJXJXJXJXJXJXJXJXJXJXJXJXJX",
"JXJXJXJXJXJXJXJXJXJXJXe !.U.!.C.JXJXJXJXU.U.U.U.U.U.U.U.U.U.!.z JXJXJXJXJX..!.U.U.U.B.  JXJXJXJXJXJXJXJXJXJXJXJXJXJXJXJX",
"JXJXJXJXJXJXJXJXJXJXJX6 !.U.#.JXJXJXJXJX!.U.U.U.U.U.U.U.U.U.!.z JXJXJXJXJXJXJ w.w.J JXJXJXJXJXJXJXJXJXJXJXJXJXJXJXJXJXJX",
"JXJXJXJXJXJXJXJXJXJXJXy H.b.JXJXJXJXJXJXv w.H.P.U.U.U.U.H.c.>.R JXJXJXJXJXJXJXJXJXJXJXJXJXJXJXJXJXJXJXJXJXJXJXJXJXJXJXJX",
"JXJXJXJXJXJXJXJXJXJXJXJX<.H.JXJXJXJXJXJXJ b.v   6 6 6 -   >.P.6 JXJXJXJXJXJXJXJXJXJXJXJXJXJXJXJXJXJXJXJXJXJXJXJXJXJXJXJX",
"JXJXJXJXJXJXJXJXJXJXJXJX2 H.e JXJXJXJXJXJXU.!.H.>.#.>.w./.!.Z.JXJXJXJXJXJXJXJXJXJXJXJXJXJXJXJXJXJXJXJXJXJXJXJXJXJXJXJXJX",
"JXJXJXJXJXJXJXJXJXJXJXJXJXJ l JXJXJXJXJXJX../././.!.!.!./.w.l JXJXJXJXJXJXJXJXJXJXJXJXJXJXJXJXJXJXJXJXJXJXJXJXJXJXJXJXJX",
"JXJXJXJXJXJXJXJXJXJXJXJXJX- #.JXJXJXJXJXJX  - l J / / `   >.JXJXJXJXJXJXJXJXJXJXJXJXJXJXJXJXJXJXJXJXJXJXJXJXJXJXJXJXJXJX",
"JXJXJXJXJXJXJXJXJXJXJXJXJXJXc.  JXJXJXJXJXJX| Z.+.J A 5.b.C JXJXJXJXJXJXJXJXJXJXJXJXJXJXJXJXJXJXJXJXJXJXJXJXJXJXJXJXJXJX",
"JXJXJXJXJXJXJXJXJXJXJXJXJXJXC ..JXJXJXJXJXJX  <.U.!./.P./ JXJXJXJXJXJXJXJXJXJXJXJXJXJXJXJXJXJXJXJXJXJXJXJXJXJXJXJXJXJXJX",
"JXJXJXJXJXJXJXJXJXJXJXJXJXJX  >.JXJXJXJX/ c.b.<.  | - e C.H.>.  JXJXJXJXJXJXJXJXJXJXJXJXJXJXJXJXJXJXJXJXJXJXJXJXJXJXJXJX",
"JXJXJXJXJXJXJXJXJXJXJXJXJXJXJX#.l JXJX3.!.Y.Y.!./.w.0.^.U.U.!./.#.JXJXJXJXJXJXJXJXJXJXJXJXJXJXJXJXJXJXJXJXJXJXJXJXJXJXJX",
"JXJXJXJXJXJXJXJXJXJXJXJXJXJXJXv #.  H.!.!.P.P.!.U.U.U.!.U.U.U.U.U.#.JXJXJXJXJXJXJXJXJXJXJXJXJXJXJXJXJXJXJXJXJXJXJXJXJXJX",
"JXJXJXJXJXJXJXJXJXJXJXJXJXJXJXl !./ Y.P.U.U.U.U.U.U.U.U.U.U.U.U.U.Q.l JXJXJXJXJXJXJXJXJXJXJXJXJXJXJXJXJXJXJXJXJXJXJXJXJX",
"JXJXJXJXJXJXJXJXJXJXJXJXJXJXJXv Z !.P.Y.U.U.U.U.U.U.U.U.U.U.U.U.U.U.5.JXJXJXJXJXJXJXJXJXJXJXJXJXJXJXJXJXJXJXJXJXJXJXJXJX",
"JXJXJXJXJXJXJXJXJXJXJXJXJXJXJX  v /.U.U.U.U.U.U.U.U.U.U.U.U.U.U.U.U.c.JXJXJXJXJXJXJXJXJXJXJXJXJXJXJXJXJXJXJXJXJXJXJXJXJX",
"JXJXJXJXJXJXJXJXJXJXJXJXJXJXJX  >.!.U.U.U.U.U.U.U.U.U.U.U.U.U.U.U.U.!.- JXJXJXJXJXJXJXJXJXJXJXJXJXJXJXJXJXJXJXJXJXJXJXJX",
"JXJXJXJXJXJXJXJXJXJXJXJX- :.5.  Z.U.U.U.U.U.U.U.U.U.U.U.U.U.U.U.U.U.!.- JXJXJXJXJXJXJXJXJXJXJXJXJXJXJXJXJXJXJXJXJXJXJXJX",
"JXJXJXJXJXJXJXJXJXJXJXJX+.`   JXZ.U.U.U.U.U.U.U.U.U.U.U.U.U.U.U.U.U.!.- JXJXJXJXJXJXJXJXJXJXJXJXJXJXJXJXJXJXJXJXJXJXJXJX",
"JXJXJXJXJXJXJXJXJXJXJXJX    JXJXH.U.U.U.U.U.U.U.U.U.U.U.U.U.U.U.U.U.!.y JXJXJXJXJXJXJXJXJXJXJXJXJXJXJXJXJXJXJXJXJXJXJXJX",
"JXJXJXJXJXJXJXJXJXJXJXJXJXJXJXJXZ.U.U.U.U.U.U.U.U.U.U.U.U.U.U.U.U.U.!.- JXJXJXJXJXJXJXJXJXJXJXJXJXJXJXJXJXJXJXJXJXJXJXJX",
"JXJXJXJXJXJXJXJXJXJXJXJXJXJXJXJXH.U.U.U.U.U.U.U.U.U.U.U.U.U.U.U.U.U.U.y JXJXJXJXJXJXJXJXJXJXJXJXJXJXJXJXJXJXJXJXJXJXJXJX",
"JXJXJXJXJXJXJXJXJXJXJXJXJXJXJXJXZ.U.U.U.U.U.U.U.U.U.U.U.U.U.U.U.U.U.Z.- JXJXJXJXJXJXJXJXJXJXJXJXJXJXJXJXJXJXJXJXJXJXJXJX",
"JXJXJXJXJXJXJXJXJXJXJXJXJXJXJXJX>.U.U.U.U.U.U.U.U.U.U.U.U.U.U.U.U.U.c.JXJXJXJXJXJXJXJXJXJXJXJXJXJXJXJXJXJXJXJXJXJXJXJXJX",
"JXJXJXJXJXJXJXJXJXJXJXJXJXJXJXJX2 /.U.U.U.U.U.U.U.U.U.U.U.U.U.U.U.U.>.JXJXJXJXJXJXJXJXJXJXJXJXJXJXJXJXJXJXJXJXJXJXJXJXJX",
"JXJXJXJXJXJXJXJXJXJXJXJXJXJXJXJXJXZ.U.U.U.U.U.U.U.U.U.U.U.U.U.U.Y.!./ JXJXJXJXJXJXJXJXJXJXJXJXJXJXJXJXJXJXJXJXJXJXJXJXJX",
"JXJXJXJXJXJXJXJXJXJXJXJXJXJXJXJX- #.U.U.U.U.U.U.U.U.U.U.U.U.U.U.!.!.z JXJXJXJXJXJXJXJXJXJXJXJXJXJXJXJXJXJXJXJXJXJXJXJXJX",
"JXJXJXJXJXJXJXJXJXJXJXJXJXJXJX>.U.6 U.U.U.U.U.U.U.U.U.U.U.U.U.U.!.5.  JXJXJXJXJXJXJXJXJXJXJXJXJXJXJXJXJXJXJXJXJXJXJXJXJX",
"JXJXJXJXJXJXJXJXJXJXJXJXJXJ c.!.U.J H.U.U.U.U.U.U.U.U.U.U.U.U.U.U.g b.C.JXJXJXJXJXJXJXJXJXJXJXJXJXJXJXJXJXJXJXJXJXJXJXJX",
"JXJXJXJXJXJXJXJXJXJXJXJX..U.U.U.Q.6 r.U.U.U.U.U.U.U.U.U.U.U.U.U.c.  Z.!.U.w.JXJXJXJXJXJXJXJXJXJXJXJXJXJXJXJXJXJXJXJXJXJX",
"JXJXJXJXJXJXJXJXJXJXJX>.U.P.!.U.J JX  J.U.U.U.U.U.U.U.U.U.U.U.Q.J JX..!.U.U.5.JXJXJXJXJXJXJXJXJXJXJXJXJXJXJXJXJXJXJXJXJX",
"JXJXJXJXJXJXJXJXJXJX0.Y.U.U.b.A JXJXJXH U.U.U.U.U.U.U.U.U.U.U.B.  JXJX  Z.U.P.P.J JXJXJXJXJXJXJXJXJXJXJXJXJXJXJXJXJXJXJX",
"JXJXJXJXJXJXJXJXJX<.!.!.!.b.JXJXJXJXJX- Z.U.U.U.U.U.U.U.U.U.U.  JXJXJXJX) !.Y.Y.Z...JXJXJXJXJXJXJXJXJXJXJXJXJXJXJXJXJXJX",
"JXJXJXJXJXJXJXJX0.U.U.U.b.JXJXJXJXJXJXJX  /.U.U.U.U.U.U.U.Q.A JXJXJXJXJXJX+.!.!.U.U.v JXJXJXJXJXJXJXJXJXJXJXJXJXJXJXJXJX",
"JXJXJXJXJXJXJXJXv !.U.U./ JXJXJXJXJXJXJX  v !.U.U.U.U.U.U.|   JXJXJXJXJXJXJX) !.U.U.5.JXJXJXJXJXJXJXJXJXJXJXJXJXJXJXJXJX",
"JXJXJXJXJXJXJXJXJX!.!./ JXJXJXJXJXJXJXJXJX  | U.U.U.U.U.5.  JXJXJXJXJXJXJXJXJXv !.!.` JXJXJXJXJXJXJXJXJXJXJXJXJXJXJXJXJX",
"JXJXJXJXJXJXJXJXJXZ.^.  JXJXJXJXJXJXJXJXJXJX  C D.Q.U.|   JXJXJXJXJXJXJXJXJXJXJX0.P.l JXJXJXJXJXJXJXJXJXJXJXJXJXJXJXJXJX",
"JXJXJXJXJXJXJXJXJX..).  JXJXJXJXJXJXJXJXJXJXJX    c.J   JXJXJXJXJXJXJXJXJXJXJXJX0.H.e JXJXJXJXJXJXJXJXJXJXJXJXJXJXJXJXJX",
"JXJXJXJXJXJXJXJXJX6 !.  JXJXJXJXJXJXJXJXJXJXJXJXJX    JXJXJXJXJXJXJXJXJXJXJXJXJX0.H.JXJXJXJXJXJXJXJXJXJXJXJXJXJXJXJXJXJX",
"JXJXJXJXJXJXJXJXJXJXZ.  JXJXJXJXJXJXJXJXJXJXJXJXJXJXJXJXJXJXJXJXJXJXJXJXJXJXJXJX:.0.JXJXJXJXJXJXJXJXJXJXJXJXJXJXJXJXJXJX",
"JXJXJXJXJXJXJXJXJXJX0.  JXJXJXJXJXJXJXJXJXJXJXJXJXJXJXJXJXJXJXJXJXJXJXJXJXJXJXJX5.  JXJXJXJXJXJXJXJXJXJXJXJXJXJXJXJXJXJX",
"JXJXJXJXJXJXJXJXJXJXJ   JXJXJXJXJXJXJXJXJXJXJXJXJXJXJXJXJXJXJXJXJXJXJXJXJXJXJXJX#.JXJXJXJXJXJXJXJXJXJXJXJXJXJXJXJXJXJXJX",
"JXJXJXJXJXJXJXJXJXJX`   JXJXJXJXJXJXJXJXJXJXJXJXJXJXJXJXJXJXJXJXJXJXJXJXJXJXJX  #.JXJXJXJXJXJXJXJXJXJXJXJXJXJXJXJXJXJXJX",
"JXJXJXJXJXJXJXJXJXJX|  .JXJXJXJXJXJXJXJXJXJXJXJXJXJXJXJXJXJXJXJXJXJXJXJXJXJXJX  t JXJXJXJXJXJXJXJXJXJXJXJXJXJXJXJXJXJXJX",
"JXJXJXJXJXJXJXJXJXJX+.0.JXJXJXJXJXJXJXJXJXJXJXJXJXJXJXJXJXJXJXJXJXJXJXJXJXJXJX- m JXJXJXJXJXJXJXJXJXJXJXJXJXJXJXJXJXJXJX",
"JXJXJXJXJXJXJXJXJXJX6 U.JXJXJXJXJXJXJXJXJXJXJXJXJXJXJXJXJXJXJXJXJXJXJXJXJXJXJX6 ` JXJXJXJXJXJXJXJXJXJXJXJXJXJXJXJXJXJXJX",
"JXJXJXJXJXJXJXJXJXJXJ U.JXJXJXJXJXJXJXJXJXJXJXJXJXJXJXJXJXJXJXJXJXJXJXJXJXJXJX..J JXJXJXJXJXJXJXJXJXJXJXJXJXJXJXJXJXJXJX",
"JXJXJXJXJXJXJXJXJXJXA !.J JXJXJXJXJXJXJXJXJXJXJXJXJXJXJXJXJXJXJXJXJXJXJXJXJXJX/.J JXJXJXJXJXJXJXJXJXJXJXJXJXJXJXJXJXJXJX",
"JXJXJXJXJXJXJXJXJXJXJ !.5.JXJXJXJXJXJXJXJXJXJXJXJXJXJXJXJXJXJXJXJXJXJXJXJXJX6 !...JXJXJXJXJXJXJXJXJXJXJXJXJXJXJXJXJXJXJX",
"JXJXJXJXJXJXJX        / e JXJXJXJXJXJXJXJXJXJXJXJXJXJXJXJXJXJXJXJXJXJXJXJXJX+.U.q.JXJXJXJXJXJXJXJXJXJXJXJXJXJXJXJXJXJXJX",
"JXJXJXJXJXJX  c.).  >.| - JXJXJXJXJXJXJXJXJXJXJXJXJXJXJXJXJXJXJXJXJXJXJXJXJXC U.t - #.l JXJXJXJXJXJXJXJXJXJXJXJXJXJXJXJX",
"JXJXJXJXJXJX6 / e JXJXJXJXJXJXJXJXJXJXJXJXJXJXJXJXJXJXJXJXJXJXJXJXJXJXJXJXJXJX>.t   0.^.A JXJXJXJXJXJXJXJXJXJXJXJXJXJXJX",
"JXJXJXJXJXJX    JXJXJXJXJXJXJXJXJXJXJXJXJXJXJXJXJXJXJXJXJXJXJXJXJXJXJXJXJXJXJXJXJXJX  l C JXJXJXJXJXJXJXJXJXJXJXJXJXJXJX",
"JXJXJXJXJXJXJXJXJXJXJXJXJXJXJXJXJXJXJXJXJXJXJXJXJXJXJXJXJXJXJXJXJXJXJXJXJXJXJXJXJXJXJXJX  JXJXJXJXJXJXJXJXJXJXJXJXJXJXJX",
"JXJXJXJXJXJXJXJXJXJXJXJXJXJXJXJXJXJXJXJXJXJXJXJXJXJXJXJXJXJXJXJXJXJXJXJXJXJXJXJXJXJXJXJXJXJXJXJXJXJXJXJXJXJXJXJXJXJXJXJX"
};
