/* XPM */
static char *_8b877df1e774896f9f804ac9d869a95[] = {
/* columns rows colors chars-per-pixel */
"60 91 222 2 ",
"   c black",
".  c #010000",
"X  c #010100",
"o  c #030000",
"O  c #020100",
"+  c #030100",
"@  c #030200",
"#  c #040100",
"$  c #040200",
"%  c #050200",
"&  c #060300",
"*  c #070300",
"=  c #070700",
"-  c #090000",
";  c #0A0100",
":  c #080300",
">  c #090300",
",  c #0F0200",
"<  c #080400",
"1  c #090400",
"2  c #0A0400",
"3  c #0A0500",
"4  c #0B0500",
"5  c #0C0500",
"6  c #0D0500",
"7  c #0C0600",
"8  c #0D0600",
"9  c #0E0600",
"0  c #0F0600",
"q  c #0F0700",
"w  c #080800",
"e  c #0C0C00",
"r  c #0E0E00",
"t  c #0F0F00",
"y  c #100700",
"u  c #110700",
"i  c #120700",
"p  c #110800",
"a  c #120800",
"s  c #130800",
"d  c #130900",
"f  c #140800",
"g  c #140900",
"h  c #150A00",
"j  c #160A00",
"k  c #170A00",
"l  c #170B00",
"z  c #180B00",
"x  c #190B00",
"c  c #180B01",
"v  c #1C0900",
"b  c #1A0C00",
"n  c #1B0C00",
"m  c #1C0C00",
"M  c #1D0C00",
"N  c #1C0D00",
"B  c #1D0D00",
"V  c #1E0D00",
"C  c #1F0E00",
"Z  c #131500",
"A  c #1E1E00",
"S  c #1C140E",
"D  c #220D00",
"F  c #200E00",
"G  c #200F00",
"H  c #210F00",
"J  c #220F00",
"K  c #230F00",
"L  c #221000",
"P  c #231000",
"I  c #241000",
"U  c #251000",
"Y  c #251100",
"T  c #261100",
"R  c #271100",
"E  c #281200",
"W  c #291200",
"Q  c #291300",
"!  c #2B1300",
"~  c #2C1300",
"^  c #2C1400",
"/  c #2D1400",
"(  c #2E1500",
")  c #2F1500",
"_  c #301600",
"`  c #311600",
"'  c #331700",
"]  c #341700",
"[  c #341800",
"{  c #351800",
"}  c #361800",
"|  c #371900",
" . c #311A07",
".. c #381900",
"X. c #391900",
"o. c #391A00",
"O. c #3A1A00",
"+. c #3B1B00",
"@. c #3C1B00",
"#. c #3D1B00",
"$. c #3E1B00",
"%. c #3D1C00",
"&. c #3E1C00",
"*. c #3F1C00",
"=. c #202000",
"-. c #252500",
";. c #292900",
":. c #2D2D00",
">. c #2E2E00",
",. c #303000",
"<. c #323200",
"1. c #333300",
"2. c #343400",
"3. c #363600",
"4. c #383800",
"5. c #393900",
"6. c #3A3A00",
"7. c #3B3B00",
"8. c #3C3C00",
"9. c #3D3D00",
"0. c #3F3F00",
"q. c #401C00",
"w. c #401D00",
"e. c #411D00",
"r. c #421D00",
"t. c #431E00",
"y. c #441E00",
"u. c #451E00",
"i. c #451F00",
"p. c #461F00",
"a. c #462000",
"s. c #472000",
"d. c #482000",
"f. c #492000",
"g. c #492100",
"h. c #4A2100",
"j. c #4B2100",
"k. c #4B2200",
"l. c #4C2200",
"z. c #4D2200",
"x. c #4D2300",
"c. c #4E2300",
"v. c #4F2300",
"b. c #4C2B0F",
"n. c #502400",
"m. c #512400",
"M. c #522400",
"N. c #522500",
"B. c #532500",
"V. c #532501",
"C. c #532601",
"Z. c #532602",
"A. c #542500",
"S. c #542600",
"D. c #552600",
"F. c #562600",
"G. c #562700",
"H. c #572700",
"J. c #542602",
"K. c #542702",
"L. c #542703",
"P. c #582700",
"I. c #592700",
"U. c #552907",
"Y. c #592800",
"T. c #5A2800",
"R. c #5B2900",
"E. c #4A311D",
"W. c #5A3110",
"Q. c #612B00",
"!. c #414100",
"~. c #434300",
"^. c #454500",
"/. c #494900",
"(. c #4E4E00",
"). c #555500",
"_. c #565600",
"`. c #575700",
"'. c #595900",
"]. c #5A5A00",
"[. c #5C5C00",
"{. c #5E5E00",
"}. c #656500",
"|. c #676700",
" X c #686800",
".X c #6B6B00",
"XX c #6C6C00",
"oX c #6F6F00",
"OX c #727200",
"+X c #767600",
"@X c #777700",
"#X c #797900",
"$X c #7C7C00",
"%X c #7D7D00",
"&X c #7E7E00",
"*X c #7F7F00",
"=X c #694F3A",
"-X c #6B5340",
";X c #8F7662",
":X c #997D66",
">X c #808000",
",X c #818100",
"<X c #828200",
"1X c #838300",
"2X c #848400",
"3X c #858500",
"4X c #868600",
"5X c #878700",
"6X c #888800",
"7X c #898900",
"8X c #8A8A00",
"9X c #A18873",
"0X c #A98D76",
"qX c #AE9987",
"wX c #C1AFA1",
"eX c #CDBDB0",
"rX c #DACEC5",
"tX c #EFE9E4",
"yX c #F0EBE7",
"uX c #FBFAF9",
"iX c gray100",
"pX c None",
/* pixels */
"pXpXpXpXpXpXpXpXpXpXpXpXpXpXpXpXpXpXpXpXpXpXpXpXpXpXpXpXpXpXpXpXpXpXpXpXpXpXpXpXpXpXpXpXpXpXpXpXpXpXpXpXpXpXpXpXpXpXpXpX",
"pXpXpXpXpXpXpXpXpXpXpXpXpXpXpXpXpXpXpXpXpXpXpXpXpXpXpXpXpXpXpXpXpXpXpXpXpXpXpXpXpXpXpXpXpXpXpXpXpXpXpXpXpXpXpXpXpXpXpXpX",
"pXpXpXpXpXpXpXpXpXpXpXpXpXpXpXpXpXpXpXpXpXpXpXpXpXpXpXpXpXpXpXpXpXpXpXpXpXpXpXpXpXpXpXpXpXpXpXpXpXpXpXpXpXpXpXpXpXpXpXpX",
"pXpXpXpXpXpXpXpXpXpXpXpXpXpXpXpXpXpXpXpXpXpXpXpXpXK.pXpXpXpXpXpXpXpXpXpXpXpXpXpXpXpXpXpXpXpXpXpXpXpXpXpXpXpXpXpXpXpXpXpX",
"pXpXpXpXpXpXpXpXpXpXpXpXpXpXpXpXpXpXpXpXpXpXK.M.K.K.K.pXpXpXpXpXpXpXpXpXpXpXpXpXpXpXpXpXpXpXpXpXpXpXpXpXpXpXpXpXpXpXpXpX",
"pXpXpXpXpXpXpXpXpXpXpXpXpXpXpXpXpXpXpXpXpXK.M.K.K.M.pXpXpXpXpXpXpXpXpXpXpXpXpXpXpXpXpXpXpXpXpXpXpXpXpXpXpXpXpXpXpXpXpXpX",
"pXpXpXpXpXpXpXpXpXpXpXpXpXpXpXpXpXpXpXpXK.K.K.K.pXpXpXpXpXpXpXpXpXpXpXpXpXpXpXpXpXpXpXpXpXpXpXpXpXpXpXpXpXpXpXpXpXpXpXpX",
"pXpXpXpXpXpXpXpXpXpXpXpXpXpXpXpXpXpXpXpXM.M.pXpXpXpXpXpXpXpXpXpXpXpXpXpXpXpXpXpXpXpXpXpXpXpXpXpXpXpXpXpXpXpXpXpXpXpXpXpX",
"pXpXpXpXpXpXpXpXpXpXpXpXpXpXpXpXpXpXpXK.K.pXpXpXpXpXpXpXpXpXK.pXpXpXpXpXpXpXpXpXpXpXpXpXpXpXpXpXpXpXpXpXpXpXpXpXpXpXpXpX",
"pXpXpXpXpXpXpXpXpXpXpXpXpXpXpXpXpXpXJ.K.pXpXpXpXpXpXpXM.K.K.K.K.pXpXpXpXpXpXpXpXpXpXpXpXpXpXpXpXpXpXpXpXpXpXpXpXpXpXpXpX",
"pXpXpXpXpXpXpXpXpXpXpXpXpXpXpXpXpXpXK.K.pXpXpXpXpXpXK.K.K.K.U.K.pXpXpXpXpXpXpXpXpXpXpXpXpXpXpXpXpXpXpXpXpXpXpXpXpXpXpXpX",
"pXpXpXpXpXpXpXpXpXpXpXpXpXpXpXpXpXpXM.pXpXpXpXpXpXK.J.pXpXpXpXpXpXpXpXpXpXpXpXpXpXpXpXpXpXpXpXpXpXpXpXpXpXpXpXpXpXpXpXpX",
"pXpXpXpXpXpXpXpXpXpXpXpXpXpXpXpXpXpXK.pXpXpXpXpXpXK.pXpXpXpXpXpXpXpXpXpXpXpXpXpXpXpXpXpXpXpXpXpXpXpXpXpXpXpXpXpXpXpXpXpX",
"pXpXpXpXpXpXpXpXpXpXpXpXpXpXpXpXpXpXK.pXpXpXpXpXJ.pXpXpXpXpXpXpXpXpXpXpXpXpXpXpXpXpXpXpXpXpXpXpXpXpXpXpXpXpXpXpXpXpXpXpX",
"pXpXpXpXpXpXpXpXpXpXpXpXpXpXpXpXpXpXpXpXpXpXpXpXJ.pXpXpXpXpXpXpXpXpXpXpXpXpXpXpXpXpXpXpXpXpXpXpXpXpXpXpXpXpXpXpXpXpXpXpX",
"pXpXpXpXpXpXpXpXpXpXpXpXpXpXpXpXpXpXpXpXpXpXpXK.pXpXpXpXpXpXpXpXpXpXpXpXpXpXpXpXpXpXpXpXpXpXpXpXpXpXpXpXpXpXpXpXpXpXpXpX",
"pXpXpXpXpXpXpXpXpXpXpXpXpXpXpXpXpXpXpXpXpXpXpXpXpXpXpXpXpXpXpXpXpXpXpXpXpXpXpXpXpXpXpXpXpXpXpXpXpXpXpXpXpXpXpXpXpXpXpXpX",
"pXpXpXpXpXpXpXpXpXpXpXpXpXpXpXpXpXpXpXpXpXpXpXpXpXpXpXpXpXpXpXpXpXpXpXpXpXpXpXpXpXpXpXpXpXpXpXpXpXpXpXpXpXpXpXpXpXpXpXpX",
"pXpXpXpXpXpXpXpXpXpXpXpXpXpXpXpXpXpXpXpXpXpXpXpXpXpXpXpXpXpXpXpXpXpXpXpXpXpXpXpXpXpXpXpXpXpXpXpXpXpXpXpXpXpXpXpXpXpXpXpX",
"pXpXpXpXpXpXpXpXpXpXpXpXpXpXpXpXpXpXpXpXpXpXpXpXpXpXpXpXpXpXpXpXpXpXpXpXpXpXpXpXpXpXpXpXpXpXpXpXpXpXpXpXpXpXpXpXpXpXpXpX",
"pXpXpXpXpXpXpXpXpXpXpXpXpXpXpXpX              pXpXpXpXpXpXpXpXpXpXpXpXpXpXpXpXpXpXpXpXpXpXpXpXpXpXpXpXpXpXpXpXpXpXpXpXpX",
"pXpXpXpXpXpXpXpXpXpXpXpXpXpX        8 D #         pXpXpXpXpXpXpXpXpXpXpXpXpXpXpXpXpXpXpXpXpXpXpXpXpXpXpXpXpXpXpXpXpXpXpX",
"pXpXpXpXpXpXpXpXpXpXpXpXpX        - W.eX9XS         pXpXpXpXpXpXpXpXpXpXpXpXpXpXpXpXpXpXpXpXpXpXpXpXpXpXpXpXpXpXpXpXpXpX",
"pXpXpXpXpXpXpXpXpXpXpXpX          m :XiXiXyX-       pXpXpXpXpXpXpXpXpXpXpXpXpXpXpXpXpXpXpXpXpXpXpXpXpXpXpXpXpXpXpXpXpXpX",
"pXpXpXpXpXpXpXpXpXpXpX            - ;XiXrX .D         pXpXpXpXpXpXpXpXpXpXpXpXpXpXpXpXpXpXpXpXpXpXpXpXpXpXpXpXpXpXpXpXpX",
"pXpXpXpXpXpXpXpXpXpXpX              =XuXtX-X            pXpXpXpXpXpXpXpXpXpXpXpXpXpXpXpXpXpXpXpXpXpXpXpXpXpXpXpXpXpXpXpX",
"pXpXpXpXpXpXpXpXpXpXpX              , 0XwXE.            pXpXpXpXpXpXpXpXpXpXpXpXpXpXpXpXpXpXpXpXpXpXpXpXpXpXpXpXpXpXpXpX",
"pXpXpXpXpXpXpXpXpXpXpX                c qXb.            pXpXpXpXpXpXpXpXpXpXpXpXpXpXpXpXpXpXpXpXpXpXpXpXpXpXpXpXpXpXpXpX",
"pXpXpXpXpXpXpXpXpXpXpX                    f 2         pXpXpXpXpXpXpXpXpXpXpXpXpX8 f pXpXpXpXpXpXpXpXpXpXpXpXpXpXpXpXpXpX",
"pXpXpXpXpXpXpXpXpXpXpX                                pXpXpXpXpXpXpXpX    8 T   i +.#   !.7.7.e pXpXpXpXpXpXpXpXpXpXpXpX",
"pXpXpXpXpXpXpXpXpXpXpXpX                            pXpXpXpXpXpXpXpXpXB %.    pX  Z _.2X2X2X1X7X'.:.pXpXpXpXpXpXpXpXpXpX",
"pXpXpXpXpXpXpXpXpXpXpXpX                          pXpXpXpXpXpXpXpXpX  K.} # pXpX,.1X2X*X*X1X1X*X1X1X X,.  pXpXpXpXpXpXpX",
"pXpXpXpXpXpXpXpXpXpXpXpXpXpX                  pXpXpXpXpXpXpXpXpXpXpXD h   pXpX7.*X*X*X*X*X1X*X*X*X*X*X1X(.r pXpXpXpXpXpX",
"pXpXpXpXpXpXpXpXpXpXpXpXpXpXpX  8       8   pXpXpXpXpXpXpXpXpXpXpX  f   pXpX=.*X1X*X1X*X*X*X1X*X1X*X*X*X2X_.pXpXpXpXpXpX",
"pXpXpXpXpXpXpXpXpXpXpXpXpXpXpXf h.q.$.$.z.L pXpXpXpXpXpXpXpXpXpXpX    pXpXw *X>X*X*X*X1X*X*X*X*X*X1X*X1X*X1X}.e pXpXpXpX",
"pXpXpXpXpXpXpXpXpXpXpXpXpXpXpXq.K.J.K.J.J.J.Q pXpXpXpXpXpXpXpXpX    pXpXpXXX>X>X1X*X*X*X1X*X1X*X*X*X*X*X*X1X*X XpXpXpXpX",
"pXpXpXpXpXpXpXpXpXpXpXpXpXpXb M.M.M.J.M.J.M.f.  pXpXpXpXpXpXpX    pXpXpX1.#X>X>X*X*X*X*X*X1X*X1X*X1X*X*X*X1X*X*X,.pXpXpX",
"pXpXpXpXpXpXpXpXpXpXpXpXpXpX} J.K.M.M.J.M.J.J.} T   pXpXpXpX  B   pXpXpX0.1X>X>X1X*X1X*X*X*X*X*X*X*X1X*X*X*X*X1X1X  pXpX",
"pXpXpXpXpXpXpXpXpXpXpXpXpXpX} J.J.M.J.M.J.M.J.c J.K.} 8 pX# T ` pXpXpXpX[.1X>X>X*X*X*X1X*X1X*X*X*X*X*X*X*X*X*X*X2X/.pXpX",
"pXpXpXpXpXpXpXpXpXpXpXpXpXpX} J.M.J.M.J.M.J.M.+.$.P.J.J.$.$.K.2 pXpXpX  6X>X>X>X1X*X*X*X*X*X1X*X1X*X1X*X1X*X1X*X*X*XpXpX",
"pXpXpXpXpXpXpXpXpXpXpXpXpXpX} J.J.M.M.J.M.J.M.f.# T K.J.K.J.+.pXpXpXpXA 2X1X*X*X*X*X*X1X*X*X*X*X1X*X1X*X1X*X1X*X1X#X,.pX",
"pXpXpXpXpXpXpXpXpXpXpXpXpXpX} J.M.J.J.M.J.M.M.z.pXpX# } h.c   pXpXpXpX~.1X*X1X*X1X*X*X*X1X*X1X*X*X*X*X*X*X*X*X*X*X*X7.pX",
"pXpXpXpXpXpXpXpXpXpXpXpXpXpXQ P.J.J.J.J.K.$.K K   pXpXpXpXpXpXpXpXpXpX!.2X1X*X*X*X1X*X1X*X*X*X1X*X*X1X*X*X*X1X*X*X*X= pX",
"pXpXpXpXpXpXpXpXpXpXpXpXpXpXp Q $.J.M.h.    p $.  pXpXpXpXpXpXpXpXpXpX!.2X*X1X*X*X*X*X*X1X*X*X*X*X1X*X*X*X1X*X*X1X'.pXpX",
"pXpXpXpXpXpXpXpXpXpXpXpXpXpXpXT c P.J.z.D +.T.` pXpXpXpXpXpXpXpXpXpXpX:.7X1X*X1X*X1X*X*X*X1X*X*X*X*X*X*X*X*X*X*X#Xt pXpX",
"pXpXpXpXpXpXpXpXpXpXpXpXpXpXpXu.P.J.M.M.J.+.( # pXpXpXpXpXpXpXpXpXpXpX  +X*X*X*X*X*X1X*X*X*X1X*X*X1X*X1X1X*X1X*X-.pXpXpX",
"pXpXpXpXpXpXpXpXpXpXpXpXpXpXpXi Q u.M.K.%.  2 i pXpXpXpXpXpXpXpXpXpXpXpX9.1X*X1X*X*X*X*X*X*X*X*X1X*X*X*X1X1X*X9.pXpXpXpX",
"pXpXpXpXpXpXpXpXpXpXpXpXpXpXpXpX2 z.M.K.h.+.} pXpXpXpXpXpXpXpXpXpXpXpXpXpX X1X*X1X*X1X*X1X*X1X*X*X*X*X1X2X}.,.pXpXpXpXpX",
"pXpXpXpXpXpXpXpXpXpXpXpXpXpX      m M.J.P.8   pXpXpXpXpXpX    i f   pXpXpX  OX2X*X*X*X*X*X*X*X*X*X1X1X7X7.= pXpXpXpXpXpX",
"pXpXpXpXpXpXpXpXpXpXpXpX2 ( z.T.P.} z.J.J.+.} D         = D z.K.Q = q pXpX    (.OX1X1X1X1X1X1X1X+X X~.  pXpXpXpXpXpXpXpX",
"pXpXpXpXpXpXpXpXpXpXpXL f.J.K.K.J.J.J.q.K ` D 8     pXpXpXpX  i 2 pX2   2 p     pX9.7._._.'.:.3.;.pXpXpXpXpXpXpXpXpXpXpX",
"pXpXpXpXpXpXpXpXpXpXpXu.K.M.M.K.M.M.K.z.#   B z.$.pXpXpXpXpXpXpXpXpXpXpX# Q   pXpXpXpXpXpXpXpXpXpXpXpXpXpXpXpXpXpXpXpXpX",
"pXpXpXpXpXpXpXpXpXpX} J.M.M.J.M.J.M.J.M.P.P.P.M.J.+.pXpXpXpXpXpXpXpXpXpXpXpXpXpXpXpXpXpXpXpXpXpXpXpXpXpXpXpXpXpXpXpXpXpX",
"pXpXpXpXpXpXpXpXpXpXz.J.M.J.M.J.M.J.M.J.J.M.K.J.K.h.c pXpXpXpXpXpXpXpXpXpXpXpXpXpXpXpXpXpXpXpXpXpXpXpXpXpXpXpXpXpXpXpXpX",
"pXpXpXpXpXpXpXpXpXB z.J.J.M.J.M.J.M.J.M.J.M.J.M.K.J.B pXpXpXpXpXpXpXpXpXpXpXpXpXpXpXpXpXpXpXpXpXpXpXpXpXpXpXpXpXpXpXpXpX",
"pXpXpXpXpXpXpXpXpX( M.J.M.J.M.J.M.J.M.J.M.J.M.J.M.J.i pXpXpXpXpXpXpXpXpXpXpXpXpXpXpXpXpXpXpXpXpXpXpXpXpXpXpXpXpXpXpXpXpX",
"pXpXpXpXpXpXpXpXpX( J.M.J.M.J.M.J.M.J.M.J.M.J.M.J.P.p pXpXpXpXpXpXpXpXpXpXpXpXpXpXpXpXpXpXpXpXpXpXpXpXpXpXpXpXpXpXpXpXpX",
"pXpXpXpXpXpXpXpXpXT M.M.M.J.M.J.M.J.M.J.M.J.M.J.K.J.f pXpXpXpXpXpXpXpXpXpXpXpXpXpXpXpXpXpXpXpXpXpXpXpXpXpXpXpXpXpXpXpXpX",
"pXpXpXpXpXpXpXpXpX} K.K.J.M.J.M.J.M.J.M.J.M.J.M.M.J.b pXpXpXpXpXpXpXpXpXpXpXpXpXpXpXpXpXpXpXpXpXpXpXpXpXpXpXpXpXpXpXpXpX",
"pXpXpXpXpXpXpXpXpX$.K.M.M.J.M.J.M.J.M.J.M.J.M.J.J.J.D pXpXpXpXpXpXpXpXpXpXpXpXpXpXpXpXpXpXpXpXpXpXpXpXpXpXpXpXpXpXpXpXpX",
"pXpXpXpXpXpXpXpXpX+.M.J.J.M.J.M.J.M.J.M.J.M.M.K.M.u.i pXpXpXpXpXpXpXpXpXpXpXpXpXpXpXpXpXpXpXpXpXpXpXpXpXpXpXpXpXpXpXpXpX",
"pXpXpXpXpXpXpXpXpXK J.M.M.J.M.J.M.J.M.J.M.J.M.M.J.q.pXpXpXpXpXpXpXpXpXpXpXpXpXpXpXpXpXpXpXpXpXpXpXpXpXpXpXpXpXpXpXpXpXpX",
"pXpXpXpXpXpXpXpXpXT M.J.J.M.J.M.J.M.J.M.J.M.K.M.K.( pXpXpXpXpXpXpXpXpXpXpXpXpXpXpXpXpXpXpXpXpXpXpXpXpXpXpXpXpXpXpXpXpXpX",
"pXpXpXpXpXpXpXpX( p M.J.M.J.M.J.M.J.M.J.M.J.M.K.J.D pXpXpXpXpXpXpXpXpXpXpXpXpXpXpXpXpXpXpXpXpXpXpXpXpXpXpXpXpXpXpXpXpXpX",
"pXpXpXpXpXpXc h.K.D z.K.M.K.M.J.M.J.M.J.M.J.M.J.} pXpXpXpXpXpXpXpXpXpXpXpXpXpXpXpXpXpXpXpXpXpXpXpXpXpXpXpXpXpXpXpXpXpXpX",
"pXpXpXpXpX# h.J.}   h.K.M.M.J.M.J.M.J.M.J.M.J.f.  pXpXpXpXpXpXpXpXpXpXpXpXpXpXpXpXpXpXpXpXpXpXpXpXpXpXpXpXpXpXpXpXpXpXpX",
"pXpXpXpXf h.J.h.pXpX+.J.K.J.M.J.M.J.M.J.K.M.K.b B ~ pXpXpXpXpXpXpXpXpXpXpXpXpXpXpXpXpXpXpXpXpXpXpXpXpXpXpXpXpXpXpXpXpXpX",
"pXpXpXp h.J.z.c pXpX  T.M.M.J.M.J.M.J.M.J.J.` f z.J.q.T pXpXpXpXpXpXpXpXpXpXpXpXpXpXpXpXpXpXpXpXpXpXpXpXpXpXpXpXpXpXpXpX",
"pXpX8 +.J.J.D pXpXpX  ( J.J.M.M.M.J.M.J.M.M.  c h.M.J.J.( pXpXpXpXpXpXpXpXpXpXpXpXpXpXpXpXpXpXpXpXpXpXpXpXpXpXpXpXpXpXpX",
"pXpXh.J.T.Q pXpXpXpXpXf M.M.J.K.J.M.J.J.q.i pXpXpXQ z.J.P.%.pXpXpXpXpXpXpXpXpXpXpXpXpXpXpXpXpXpXpXpXpXpXpXpXpXpXpXpXpXpX",
"pX  x.J.s.pXpXpXpXpXpX  } M.K.M.M.J.M.M.f pXpXpXpXpXf P.J.J.pXpXpXpXpXpXpXpXpXpXpXpXpXpXpXpXpXpXpXpXpXpXpXpXpXpXpXpXpXpX",
"pXpXh.K.D pXpXpXpXpXpXpX8 z.J.J.J.M.u.# pXpXpXpXpXpXpX  q.P.  pXpXpXpXpXpXpXpXpXpXpXpXpXpXpXpXpXpXpXpXpXpXpXpXpXpXpXpXpX",
"pXpXB z.8 pXpXpXpXpXpXpX  8 K.J.s.B   pXpXpXpXpXpXpXpXpXT z.  pXpXpXpXpXpXpXpXpXpXpXpXpXpXpXpXpXpXpXpXpXpXpXpXpXpXpXpXpX",
"pXpX  J.B pXpXpXpXpXpXpXpX  - (     pXpXpXpXpXpXpXpXpXpXb `   pXpXpXpXpXpXpXpXpXpXpXpXpXpXpXpXpXpXpXpXpXpXpXpXpXpXpXpXpX",
"pXpXpXQ B pXpXpXpXpXpXpXpXpX    pXpXpXpXpXpXpXpXpXpXpXpXf ( pXpXpXpXpXpXpXpXpXpXpXpXpXpXpXpXpXpXpXpXpXpXpXpXpXpXpXpXpXpX",
"pXpXpX  # pXpXpXpXpXpXpXpXpXpXpXpXpXpXpXpXpXpXpXpXpXpXpXB 8 pXpXpXpXpXpXpXpXpXpXpXpXpXpXpXpXpXpXpXpXpXpXpXpXpXpXpXpXpXpX",
"pXpXpX    pXpXpXpXpXpXpXpXpXpXpXpXpXpXpXpXpXpXpXpXpXpXpX    pXpXpXpXpXpXpXpXpXpXpXpXpXpXpXpXpXpXpXpXpXpXpXpXpXpXpXpXpXpX",
"pXpXpXpX  pXpXpXpXpXpXpXpXpXpXpXpXpXpXpXpXpXpXpXpXpXpXpXpX  pXpXpXpXpXpXpXpXpXpXpXpXpXpXpXpXpXpXpXpXpXpXpXpXpXpXpXpXpXpX",
"pXpXpXpX    pXpXpXpXpXpXpXpXpXpXpXpXpXpXpXpXpXpXpXpXpXpXpX  pXpXpXpXpXpXpXpXpXpXpXpXpXpXpXpXpXpXpXpXpXpXpXpXpXpXpXpXpXpX",
"pXpXpXpX    pXpXpXpXpXpXpXpXpXpXpXpXpXpXpXpXpXpXpXpXpXpXpX  pXpXpXpXpXpXpXpXpXpXpXpXpXpXpXpXpXpXpXpXpXpXpXpXpXpXpXpXpXpX",
"pXpXpXpX  2   pXpXpXpXpXpXpXpXpXpXpXpXpXpXpXpXpXpXpXpXpXp 8 pXpXpXpXpXpXpXpXpXpXpXpXpXpXpXpXpXpXpXpXpXpXpXpXpXpXpXpXpXpX",
"pXpXpXpXpX$.8 pXpXpXpXpXpXpXpXpXpXpXpXpXpXpXpXpXpXpXpXpXb ( pXpXpXpXpXpXpXpXpXpXpXpXpXpXpXpXpXpXpXpXpXpXpXpXpXpXpXpXpXpX",
"pXpXpXpXpXQ ` pXpXpXpXpXpXpXpXpXpXpXpXpXpXpXpXpXpXpXpXpXB +.  pXpXpXpXpXpXpXpXpXpXpXpXpXpXpXpXpXpXpXpXpXpXpXpXpXpXpXpXpX",
"pXpXpXpXpX( u.= pXpXpXpXpXpXpXpXpXpXpXpXpXpXpXpXpXpXpXpXL Q.  pXpXpXpXpXpXpXpXpXpXpXpXpXpXpXpXpXpXpXpXpXpXpXpXpXpXpXpXpX",
"pXpXpXpX        pXpXpXpXpXpXpXpXpXpXpXpXpXpXpXpXpXpXpXpX-       # # pXpXpXpXpXpXpXpXpXpXpXpXpXpXpXpXpXpXpXpXpXpXpXpXpXpX",
"pXpXL } [ L   pXpXpXpXpXpXpXpXpXpXpXpXpXpXpXpXpXpXpXpXpX        ` T   pXpXpXpXpXpXpXpXpXpXpXpXpXpXpXpXpXpXpXpXpXpXpXpXpX",
"pXc J.+.pXpXpXpXpXpXpXpXpXpXpXpXpXpXpXpXpXpXpXpXpXpXpXpXpXpXpXpX      pXpXpXpXpXpXpXpXpXpXpXpXpXpXpXpXpXpXpXpXpXpXpXpXpX",
"pXpX8 pXpXpXpXpXpXpXpXpXpXpXpXpXpXpXpXpXpXpXpXpXpXpXpXpXpXpXpXpXpXpXpXpXpXpXpXpXpXpXpXpXpXpXpXpXpXpXpXpXpXpXpXpXpXpXpXpX",
"pXpXpXpXpXpXpXpXpXpXpXpXpXpXpXpXpXpXpXpXpXpXpXpXpXpXpXpXpXpXpXpXpXpXpXpXpXpXpXpXpXpXpXpXpXpXpXpXpXpXpXpXpXpXpXpXpXpXpXpX",
"pXpXpXpXpXpXpXpXpXpXpXpXpXpXpXpXpXpXpXpXpXpXpXpXpXpXpXpXpXpXpXpXpXpXpXpXpXpXpXpXpXpXpXpXpXpXpXpXpXpXpXpXpXpXpXpXpXpXpXpX",
"pXpXpXpXpXpXpXpXpXpXpXpXpXpXpXpXpXpXpXpXpXpXpXpXpXpXpXpXpXpXpXpXpXpXpXpXpXpXpXpXpXpXpXpXpXpXpXpXpXpXpXpXpXpXpXpXpXpXpXpX"
};
