/* XPM */
static char *fourmi_small[] = {
/* columns rows colors chars-per-pixel */
"30 40 4 1 ",
"  c black",
". c #800000",
"X c red",
"o c None",
/* pixels */
"oooooooooooooooooooooooooooooo",
"ooooo oooooooooooooooooooooooo",
"oooooo ooooooooooooooooooooooo",
"oo  oooooooooooooooooooooooooo",
"oooooooooooooooooooooooooooooo",
"oooooooooooooooooooooooooooooo",
"oooooooooooooooooooooooooooooo",
"oooooooooooooooooooooooooooooo",
"oooooooooooooooooooooooooooooo",
"oooooooooooooooooooooooooooooo",
"oooooooooooooooooooooooooooooo",
"oooooo ooo  oooooooooooooooooo",
"oooooo o.o ooooooooooooooooooo",
"ooooo.o .ooo.ooooooooooooooooo",
"oooooX.XX....ooooooooooooooooo",
"oooo.XXXXXXX.ooooooooooooooooo",
"oooo.XXX..XX..oooooooooooooooo",
"oooo.XX..XX..X.oooo........ oo",
"ooooo..XXX.....oo.XX..XX....oo",
"oooooo......X......XX.XXX... o",
"ooooooooo........X..XX.XX...oo",
"oooooo  oo.......XX.XX.X....oo",
"oooooo oooo o... .X.XX.....ooo",
"ooooooooooooo..X.....X....oooo",
"ooooooooooooo .X.X.......ooooo",
"oooooooooooooo..........oooooo",
"ooooooo   ooooo....... ooooooo",
"ooooooo ooooooo ooo oooooooooo",
"oooooooooooooooooooooooooooooo",
"oooooooooooooo ooooooooooooooo",
"ooooooooooooooooooooooo oooooo",
"ooooooooooooo oooooooooooooooo",
"oooooooooooooooooooooooo ooooo",
"oooooooooooooooooooooooooooooo",
"oooooooooooooooooooooooooooooo",
"oooooooooooooooooooooooooooooo",
"ooooooooooooooooooooooooooo  o",
"oooooooooo    oooooooooooo  oo",
"oooooooooooooooooooooooooooooo",
"oooooooooooooooooooooooooooooo"
};
