/* XPM */
static char *fourmi_fun_custom[] = {
/* columns rows colors chars-per-pixel */
"60 43 52 1 ",
"  c black",
". c #010101",
"X c #020202",
"o c gray7",
"O c gray10",
"+ c #350C04",
"@ c #360D04",
"# c #360C05",
"$ c #370C05",
"% c #370D05",
"& c #380D05",
"* c #3D0E05",
"= c #3E0F05",
"- c #3C0E06",
"; c #441006",
": c #451007",
"> c #461006",
", c #471006",
"< c #471107",
"1 c #4C1207",
"2 c #591508",
"3 c #5A1508",
"4 c #5B1508",
"5 c #5C1508",
"6 c #52180D",
"7 c #621609",
"8 c #621709",
"9 c gray30",
"0 c #4E4E4E",
"q c #841E0C",
"w c #8D210C",
"e c #93220E",
"r c #9B240E",
"t c #A3260E",
"y c #A82710",
"u c #AB2710",
"i c #B22910",
"p c #B72A11",
"a c #C12D12",
"s c #C7351A",
"d c #CD3D22",
"f c #D4472D",
"g c #D74A31",
"h c #E35A42",
"j c #F7755F",
"k c #F77660",
"l c #FB7A64",
"z c #FC7C67",
"x c #FD7C67",
"c c #FE7E69",
"v c gray100",
"b c None",
/* pixels */
"bbbbbbbbbbbbbbbbbbbbbbbbbbbbbbbbbbbbbbbbbbbbbbbbbbbbbbbbbbbb",
"bbbbbbbbbbbbbbbbbbbbbbbbbbbbbbbbbbbbbbbbbbbbbbbbbbbbbbbbbbbb",
"bbbbbbbbbbbbbbbbbbbbbbbbbbbbbbbbbbbbbbbbbbbbbbbbbbbbbbbbbbbb",
"bbbbbbbbbbbbbbbbbbbbbbbbbbbbbbbbbbbbbbbbbbbbbbbbbbbbbbbbbbbb",
"bbbbbbbbbbbbbbbbbbbbbbbbbbbbbbbbbbbbbbbbbbbbbbbbbbbbbbbbbbbb",
"bbbbbbbbbbbbbbbbbbbbbbbbbbbbbbbbbbbbbbbbbbbbbbbbbbbbbbbbbbbb",
"bbbbbbbbbbbbbbbbbbbbbbbbbbbbbbbbbbbbbbbbbbbbbbbbbbbbbbbbbbbb",
"bbbbbbbbbbbbbbbbbbbbbbbbbbbbbbbbbbbbbbbbbbbbbbbbbbbbbbbbbbbb",
"bvvvvvvbbbbbbbbbbbbbbbbbbbbbvvvvvvbbbbbbbbbbbbbbbbbbbbbbbbbb",
"bvvvvvbvvbbbbbbbbbbbbbbbbvvvvbbvvvbbbbbbbbbbbbbbbbbbbbbbbbbb",
"bvvbbbbbvvbbbbbbbbbbbbbbvvvbbbbvvbbbbbbbbbbbbbbbbbbbbbbbbbbb",
"bbbbbbbbbbvbbbbbbbbbbbbvvbbbbbbbbbbbbbbbbbbbbbbbbbbbbbbbbbbb",
"bbbbbbbbbbbvbbbbbbbbbbbvbbbbbbbbbbbbbbbbbbbbbbbbbbbbbbbbbbbb",
"bbbbbbbbbbbvbbbbbbbbbbvbbbbbbbbbbbbbbbbbbbbbbbbbbbbbbbbbbbbb",
"bbbbbbbbbbbbvbvvvvvvvvbbbbbbbbbbbbbbbbbbbbbbbbbbbbbbbbbbbbbb",
"bbbbbbbbbbbbvvbbbbbbbvbbbbbbbbbbbbbbbbbbbbbbbbbbbbbbbbbbbbbb",
"bbbbbbbbbbbbvbbbbbbbbbvbbbbbbbvvvvvvvbbbbbbbbbbbbbbbbbbbbbbb",
"bbbbbbbbbbbvbbbbbbbbbbbvbbbbvvb9 >Obvvvbbbbbbbvvvvvvvvbbbbbb",
"bbbbbbbbbbvbbbbbbbbbbbbvbbvvbbb=bbb8 bvvvbbbvvvb@dbl6vbbbbbb",
"bbbbbbbbbbvbbbbbbbbbbbbbvv4bbb bbbbb@bbbvvbvxbb bbbbs vvbbbb",
"bbbbbbbbbbvbbbvvbbvvbbbbvb4bbb bbbbbg bbvvvoxbb bbbbb@bvvbbb",
"bbbbbbbbbbvbbbvvbbvvbbbbvb bbbb@u bbc bbbvvbtbbb@wbbb>bbvbbb",
"bbbbbbbbbbvbbbbbbbbbbbbvbbbebbbbbbbbybbbhvvb>bbbbbbbb>bbvbbb",
"bbbbbbbbbbvbbvbbbbbbvbbvbbb8gbbbbbbb>bbbavvb qbbbbbbf bbvbbb",
"bbbbbbbbbbvvbbvbbbbvbbbvvbbb1kbbbbb=bbbb@vvbb 4bbbbi bbbvbbb",
"bbbbbbbbbbbvvbbvvvvbbbvbvvbbv &rp45vbbbjvvvvbb9 := vbbbvbbbb",
"bbbbbbbbbbbbvbbbbbbbbvbbbvvvbbbbbbvvbbbvvbbvbbvvbbbbvvvvbbbb",
"bbbbbbbbbbbbbvvvbbbvvbbbbbvvvvvbbvvbvvvvbbbbvvbvvvbvvvbbbbbb",
"bbbbbbbbbbbbbbbbvvvbbbbbbbvbvbbvvvvvvvbbbbbbbvvvvvvvbvvbbbbb",
"bbbbbbbbbbbbbbbbbbbbbbbbbvbbbbbvvvvbbbbbbbbbbbbbbvvbbbvbbbbb",
"bbbbbbbbbbbbbbbbbbbbbbbbvvbbbbbbvbbbbbbbbbbbbbbbbbvbbbbvbbbb",
"bbbbbbbbbbbbbbbbbbbbbbbbvbbbbbbbvbbbbbbbbbbbbbbbbvbbbbbvbbbb",
"bbbbbbbbbbbbbbbbbbbbbbbbvvbbbbbbbvbbbbbbbbbbbbbbbvbbbbvvbbbb",
"bbbbbbbbbbbbbbbbbbbbbbbbbvvbbbbbbvbbbbbbbbbbbbbvvvbbbvvbbbbb",
"bbbbbbbbbbbbbbbbbbbbbbbbbvvvbbbbbvvvbbbbbbbbbbbvvvbbvvvbbbbb",
"bbbbbbbbbbbbbbbbbbbbbbbbbvvvbbbbbvvvvbbbbbbbbbvvvvbbvvvbbbbb",
"bbbbbbbbbbbbbbbbbbbbbbbbbbbbbbbbbbbbbbbbbbbbbbbbbbbbbbbbbbbb",
"bbbbbbbbbbbbbbbbbbbbbbbbbbbbbbbbbbbbbbbbbbbbbbbbbbbbbbbbbbbb",
"bbbbbbbbbbbbbbbbbbbbbbbbbbbbbbbbbbbbbbbbbbbbbbbbbbbbbbbbbbbb",
"bbbbbbbbbbbbbbbbbbbbbbbbbbbbbbbbbbbbbbbbbbbbbbbbbbbbbbbbbbbb",
"bbbbbbbbbbbbbbbbbbbbbbbbbbbbbbbbbbbbbbbbbbbbbbbbbbbbbbbbbbbb",
"bbbbbbbbbbbbbbbbbbbbbbbbbbbbbbbbbbbbbbbbbbbbbbbbbbbbbbbbbbbb",
"bbbbbbbbbbbbbbbbbbbbbbbbbbbbbbbbbbbbbbbbbbbbbbbbbbbbbbbbbbbb"
};
